<svg xmlns="http://www.w3.org/2000/svg" xmlns:xlink="http://www.w3.org/1999/xlink" width="100%" height="100%" version="1.1" viewBox="0 0 540 540" xml:space="preserve" style="fill-rule:evenodd;clip-rule:evenodd;stroke-linejoin:round;stroke-miterlimit:2"><g id="Warstwa_1"><g><path d="M330.046,540c-33.41,-9.369 -143.284,-44.983 -220.574,-156.165c-91.344,-131.367 -69.507,-271.137 -64.616,-298.898c87.693,-28.312 175.454,-56.625 263.146,-84.937c10.54,42.572 19.77,88.519 26.59,137.635c21.699,155.614 12.813,293.18 -4.546,402.365Z" style="fill:#283593;fill-rule:nonzero"/><path d="M500.333,193.226c1.791,30.861 3.789,130.884 -59.036,231.32c-22.25,35.546 -47.531,62.963 -70.608,83.629c-0.345,-0.069 -0.62,-0.207 -0.965,-0.276c17.566,-103.881 24.386,-226.498 4.409,-361.378c-6.475,-43.811 -15.293,-85.074 -25.488,-123.651c43.605,21.493 87.141,42.985 130.746,64.478c9.162,26.728 18.462,62.755 20.942,105.878Z" style="fill:#4a5de2;fill-rule:nonzero"/></g></g></svg>