<svg viewBox="0 0 1200 1200" xmlns="http://www.w3.org/2000/svg" xml:space="preserve" style="fill-rule:evenodd;clip-rule:evenodd;stroke-linejoin:round;stroke-miterlimit:2">
  <path d="M733.428 1200c-74.079-20.751-318.408-99.963-490.219-346.969C40.159 560.952 88.802 250.353 99.735 188.769 294.752 125.846 489.546 62.923 684.562 0c23.429 94.608 43.957 196.579 59.13 305.913 47.973 345.63 28.338 651.32-10.264 894.087ZM1111.86 429.305c4.016 68.501 8.479 290.963-131.201 514.094-49.535 78.989-105.541 139.903-156.862 185.868-.669-.223-1.338-.446-2.231-.669 39.048-230.941 54.221-503.384 9.818-803.273-14.504-97.508-33.916-189.215-56.676-274.897l290.517 143.25c20.528 59.799 41.28 139.68 46.635 235.627Z" style="fill:#fff;fill-rule:nonzero"/>
</svg>
